<svg xmlns="http://www.w3.org/2000/svg" viewBox="0 0 1280 720">
  <rect x="0" y="0" width="1280" height="6" fill="{primary_color}"/>

  <g font-family="Noto Sans SC, 微软雅黑, Microsoft YaHei, Arial, Helvetica, sans-serif">
    <!-- 标题区 -->
    <text x="50" y="50" font-size="32" font-weight="800" fill="{heading_color}">{title}</text>
    <text x="50" y="92" font-size="20" fill="{text_color}">{subtitle}</text>

    <!-- 表格主体 -->
    <rect x="50" y="110" width="1180" height="560" rx="14" fill="{card_bg_color}"/>

    <!-- 表头 -->
    <rect x="50" y="110" width="1180" height="60" rx="14" fill="{primary_color}"/>
    <rect x="50" y="146" width="1180" height="24" fill="{primary_color}"/>

    <!-- 纵向分隔线 -->
    <line x1="330" y1="110" x2="330" y2="670" stroke="{secondary_bg_color}" stroke-width="2"/>
    <line x1="630" y1="110" x2="630" y2="670" stroke="{secondary_bg_color}" stroke-width="2"/>
    <line x1="930" y1="110" x2="930" y2="670" stroke="{secondary_bg_color}" stroke-width="2"/>

    <!-- 表头文字 -->
    <text x="190" y="148" text-anchor="middle" font-size="18" font-weight="700" fill="{header_text_color}">{col_1_header}</text>
    <text x="480" y="148" text-anchor="middle" font-size="18" font-weight="700" fill="{header_text_color}">{col_2_header}</text>
    <text x="780" y="148" text-anchor="middle" font-size="18" font-weight="700" fill="{header_text_color}">{col_3_header}</text>
    <text x="1080" y="148" text-anchor="middle" font-size="18" font-weight="700" fill="{header_text_color}">{col_4_header}</text>

    <!-- 第1行 -->
    <rect x="50" y="170" width="1180" height="125" fill="{row_bg_color_1}"/>
    <text x="74" y="240" font-size="17" font-weight="700" fill="{heading_color}">{row_1_label}</text>
    <text x="354" y="240" font-size="16" fill="{text_color}">{row_1_col_2}</text>
    <text x="654" y="240" font-size="16" fill="{text_color}">{row_1_col_3}</text>
    <text x="954" y="240" font-size="16" fill="{text_color}">{row_1_col_4}</text>

    <!-- 第2行 -->
    <rect x="50" y="295" width="1180" height="125" fill="{row_bg_color_2}"/>
    <text x="74" y="365" font-size="17" font-weight="700" fill="{heading_color}">{row_2_label}</text>
    <text x="354" y="365" font-size="16" fill="{text_color}">{row_2_col_2}</text>
    <text x="654" y="365" font-size="16" fill="{text_color}">{row_2_col_3}</text>
    <text x="954" y="365" font-size="16" fill="{text_color}">{row_2_col_4}</text>

    <!-- 第3行 -->
    <rect x="50" y="420" width="1180" height="125" fill="{row_bg_color_3}"/>
    <text x="74" y="490" font-size="17" font-weight="700" fill="{heading_color}">{row_3_label}</text>
    <text x="354" y="490" font-size="16" fill="{text_color}">{row_3_col_2}</text>
    <text x="654" y="490" font-size="16" fill="{text_color}">{row_3_col_3}</text>
    <text x="954" y="490" font-size="16" fill="{text_color}">{row_3_col_4}</text>

    <!-- 第4行 -->
    <rect x="50" y="545" width="1180" height="125" fill="{row_bg_color_4}"/>
    <text x="74" y="615" font-size="17" font-weight="700" fill="{heading_color}">{row_4_label}</text>
    <text x="354" y="615" font-size="16" fill="{text_color}">{row_4_col_2}</text>
    <text x="654" y="615" font-size="16" fill="{text_color}">{row_4_col_3}</text>
    <text x="954" y="615" font-size="16" fill="{text_color}">{row_4_col_4}</text>

    <!-- 页码 -->
    <text x="1220" y="700" text-anchor="end" font-size="13" fill="{text_color}">{page_number} / {total_pages}</text>
  </g>
</svg>