<svg xmlns="http://www.w3.org/2000/svg" viewBox="0 0 1280 720" font-family="Noto Sans SC,Microsoft YaHei,Arial,Helvetica,sans-serif">
  <rect width="1280" height="6" fill="{primary_color}"/>
  <text x="50" y="50" font-size="32" font-weight="800" fill="{heading_color}">{title}</text>
  <text x="50" y="92" font-size="20" fill="{text_color}">{subtitle}</text>
  <rect x="50" y="118" width="1180" height="170" rx="24" fill="{card_bg_color}" stroke="{primary_color}" stroke-width="2"/>
  <text x="80" y="158" font-size="24" font-weight="800" fill="{heading_color}">{hero_title}</text>
  <text x="80" y="198" font-size="18" fill="{text_color}"><tspan x="80" dy="0">{hero_line_1}</tspan><tspan x="80" dy="30">{hero_line_2}</tspan><tspan x="80" dy="30">{hero_line_3}</tspan></text>
  <rect x="50" y="310" width="1180" height="360" rx="16" fill="{card_bg_color}" stroke="{primary_color}" stroke-width="2"/>
  <rect x="50" y="310" width="1180" height="56" rx="16" fill="{primary_color}"/>
  <rect x="50" y="342" width="1180" height="24" fill="{primary_color}"/>
  <line x1="280" y1="310" x2="280" y2="670" stroke="{grid_line_color}" stroke-width="2"/>
  <line x1="580" y1="310" x2="580" y2="670" stroke="{grid_line_color}" stroke-width="2"/>
  <line x1="880" y1="310" x2="880" y2="670" stroke="{grid_line_color}" stroke-width="2"/>
  <text x="165" y="348" text-anchor="middle" font-size="18" font-weight="700" fill="{header_text_color}">{col_1_header}</text>
  <text x="430" y="348" text-anchor="middle" font-size="18" font-weight="700" fill="{header_text_color}">{col_2_header}</text>
  <text x="730" y="348" text-anchor="middle" font-size="18" font-weight="700" fill="{header_text_color}">{col_3_header}</text>
  <text x="1055" y="348" text-anchor="middle" font-size="18" font-weight="700" fill="{header_text_color}">{col_4_header}</text>
  <rect x="50" y="442" width="1180" height="112" fill="{row_bg_color_2}"/>
  <text x="74" y="502" font-size="16" font-weight="700" fill="{heading_color}">{row_2_col_1}</text>
  <text x="304" y="486" font-size="15" fill="{text_color}"><tspan x="304" dy="0">{row_2_col_2_line_1}</tspan><tspan x="304" dy="24">{row_2_col_2_line_2}</tspan></text>
  <text x="604" y="486" font-size="15" fill="{text_color}"><tspan x="604" dy="0">{row_2_col_3_line_1}</tspan><tspan x="604" dy="24">{row_2_col_3_line_2}</tspan></text>
  <text x="904" y="486" font-size="15" fill="{text_color}"><tspan x="904" dy="0">{row_2_col_4_line_1}</tspan><tspan x="904" dy="24">{row_2_col_4_line_2}</tspan></text>
  <!-- 更多同类元素 -->
  <text x="1220" y="700" text-anchor="end" font-size="13" fill="{text_color}">{page_number} / {total_pages}</text>
</svg>
