<svg viewBox="0 0 1280 720" xmlns="http://www.w3.org/2000/svg">
  <rect x="0" y="0" width="1280" height="6" fill="{primary_color}"/>
  <text x="50" y="50" font-size="34" font-weight="800" fill="{heading_color}" font-family="Noto Sans SC, Microsoft YaHei, Arial, sans-serif">{title}</text>
  <text x="50" y="78" font-size="20" font-weight="500" fill="{text_color}" font-family="Noto Sans SC, Microsoft YaHei, Arial, sans-serif">{subtitle}</text>

  <g>
    <rect x="190" y="110" width="900" height="96" rx="14" fill="{card_bg_color}" stroke="{primary_color}" stroke-width="2"/>
    <rect x="206" y="138" width="6" height="40" rx="3" fill="{primary_color}"/>
    <rect x="226" y="136" width="88" height="44" rx="12" fill="{secondary_bg_color}"/>
    <text x="270" y="165" text-anchor="middle" font-size="24" font-weight="700" fill="{heading_color}" font-family="Arial, sans-serif">01</text>
    <text x="348" y="160" font-size="23" font-weight="700" fill="{heading_color}" font-family="Noto Sans SC, Microsoft YaHei, Arial, sans-serif">瀛楄瘝棰勪範</text>
    <text x="348" y="189" font-size="17" fill="{text_color}" font-family="Noto Sans SC, Microsoft YaHei, Arial, sans-serif">璁よ瘑閲嶇偣鐢熷瓧锛岃鍑嗚瘝璇€?</text>
  </g>

  <g>
    <rect x="190" y="218" width="900" height="96" rx="14" fill="{card_bg_color}" stroke="{secondary_color}" stroke-width="2"/>
    <rect x="206" y="246" width="6" height="40" rx="3" fill="{secondary_color}"/>
    <rect x="226" y="244" width="88" height="44" rx="12" fill="{secondary_bg_color}"/>
    <text x="270" y="273" text-anchor="middle" font-size="24" font-weight="700" fill="{heading_color}" font-family="Arial, sans-serif">02</text>
    <text x="348" y="268" font-size="23" font-weight="700" fill="{heading_color}" font-family="Noto Sans SC, Microsoft YaHei, Arial, sans-serif">鏈楄璇炬枃</text>
    <text x="348" y="297" font-size="17" fill="{text_color}" font-family="Noto Sans SC, Microsoft YaHei, Arial, sans-serif">椤虹潃鎯呰妭姊崇悊鏁呬簨鍙戝睍銆?</text>
  </g>

  <g>
    <rect x="190" y="326" width="900" height="96" rx="14" fill="{card_bg_color}" stroke="{primary_color}" stroke-width="2"/>
    <rect x="206" y="354" width="6" height="40" rx="3" fill="{primary_color}"/>
    <rect x="226" y="352" width="88" height="44" rx="12" fill="{secondary_bg_color}"/>
    <text x="270" y="381" text-anchor="middle" font-size="24" font-weight="700" fill="{heading_color}" font-family="Arial, sans-serif">03</text>
    <text x="348" y="376" font-size="23" font-weight="700" fill="{heading_color}" font-family="Noto Sans SC, Microsoft YaHei, Arial, sans-serif">缁嗚鐞嗚В</text>
    <text x="348" y="405" font-size="17" fill="{text_color}" font-family="Noto Sans SC, Microsoft YaHei, Arial, sans-serif">鎶撲綇浜虹墿璇█鍜屽姩浣溿€?</text>
  </g>

  <g>
    <rect x="190" y="434" width="900" height="96" rx="14" fill="{card_bg_color}" stroke="{secondary_color}" stroke-width="2"/>
    <rect x="206" y="462" width="6" height="40" rx="3" fill="{secondary_color}"/>
    <rect x="226" y="460" width="88" height="44" rx="12" fill="{secondary_bg_color}"/>
    <text x="270" y="489" text-anchor="middle" font-size="24" font-weight="700" fill="{heading_color}" font-family="Arial, sans-serif">04</text>
    <text x="348" y="484" font-size="23" font-weight="700" fill="{heading_color}" font-family="Noto Sans SC, Microsoft YaHei, Arial, sans-serif">琛ㄨ揪杩佺Щ</text>
    <text x="348" y="513" font-size="17" fill="{text_color}" font-family="Noto Sans SC, Microsoft YaHei, Arial, sans-serif">灏濊瘯澶嶈堪鎴栦豢璇村叧閿儏鑺傘€?</text>
  </g>

  <g>
    <rect x="190" y="542" width="900" height="96" rx="14" fill="{card_bg_color}" stroke="{primary_color}" stroke-width="2"/>
    <rect x="206" y="570" width="6" height="40" rx="3" fill="{primary_color}"/>
    <rect x="226" y="568" width="88" height="44" rx="12" fill="{secondary_bg_color}"/>
    <text x="270" y="597" text-anchor="middle" font-size="24" font-weight="700" fill="{heading_color}" font-family="Arial, sans-serif">05</text>
    <text x="348" y="592" font-size="23" font-weight="700" fill="{heading_color}" font-family="Noto Sans SC, Microsoft YaHei, Arial, sans-serif">璇惧爞灏忕粨</text>
    <text x="348" y="621" font-size="17" fill="{text_color}" font-family="Noto Sans SC, Microsoft YaHei, Arial, sans-serif">鍥為【鏀惰幏锛屽畬鎴愮粌涔犮€?</text>
  </g>

  <text x="1220" y="700" text-anchor="end" font-size="13" fill="{text_color}" font-family="Noto Sans SC, Microsoft YaHei, Arial, sans-serif">{page_number} / {total_pages}</text>
</svg>

